<svg width="22" height="13" viewBox="0 0 22 13" fill="none" xmlns="http://www.w3.org/2000/svg">
<path d="M0.958984 0.5H14.3867C14.5325 0.500081 14.6591 0.54976 14.7412 0.619141C14.8208 0.686572 14.8457 0.759074 14.8457 0.8125V2.93652H17.9951L20.5996 5.91699V10.0586H18.7256L18.6553 10.4756C18.5651 11.0112 18.2459 11.5212 17.7285 11.9014C17.2098 12.2824 16.5344 12.5 15.8252 12.5C15.1159 12.5 14.4397 12.2825 13.9209 11.9014C13.4037 11.5213 13.0853 11.0111 12.9951 10.4756L12.9248 10.0586H7.21582L7.14648 10.4756C7.05632 11.0112 6.73708 11.5212 6.21973 11.9014C5.70096 12.2825 5.02474 12.5 4.31543 12.5C3.60629 12.4999 2.93076 12.2824 2.41211 11.9014C1.89475 11.5212 1.57551 11.0112 1.48535 10.4756L1.41602 10.0586H0.5V0.8125C0.5 0.759075 0.524862 0.686573 0.604492 0.619141C0.686625 0.549784 0.813134 0.500024 0.958984 0.5ZM4.31543 8.43359C4.07153 8.43365 3.82833 8.47446 3.59961 8.55469C3.37085 8.63495 3.1583 8.75447 2.97559 8.90918C2.79268 9.06407 2.64267 9.25299 2.53809 9.4668C2.43337 9.68095 2.37695 9.91406 2.37695 10.1523C2.37697 10.6374 2.60557 11.0822 2.97559 11.3955C3.34297 11.7066 3.82589 11.87 4.31543 11.8701C4.80514 11.8701 5.28875 11.7067 5.65625 11.3955C6.02626 11.0822 6.25486 10.6374 6.25488 10.1523C6.25488 9.91407 6.19847 9.68095 6.09375 9.4668C5.98917 9.25299 5.83916 9.06407 5.65625 8.90918C5.47354 8.75447 5.26099 8.63495 5.03223 8.55469C4.80336 8.47441 4.55949 8.43359 4.31543 8.43359ZM15.8252 8.43359C15.3354 8.43359 14.852 8.59703 14.4844 8.9082C14.1143 9.22163 13.8857 9.66715 13.8857 10.1523C13.8859 10.6374 14.1144 11.0822 14.4844 11.3955C14.852 11.7067 15.3354 11.8701 15.8252 11.8701C16.315 11.8701 16.7985 11.7068 17.166 11.3955C17.536 11.0822 17.7635 10.6374 17.7637 10.1523C17.7637 9.66715 17.5361 9.22163 17.166 8.9082C16.7985 8.59695 16.315 8.43364 15.8252 8.43359ZM1.41797 9.25586L2.24512 8.54102C2.56366 8.26563 2.9627 8.05404 3.41016 7.93066C3.85733 7.80741 4.33492 7.77667 4.80078 7.84277C5.26679 7.90897 5.7024 8.0693 6.07031 8.30469C6.43814 8.5401 6.72482 8.84237 6.91309 9.17871L7.05664 9.43359H13.084L13.2275 9.17871C13.3587 8.94542 13.537 8.72868 13.7549 8.54004L13.9277 8.39062V1.12402H1.41797V9.25586ZM19.6816 6.07812L19.5586 5.9375L17.6328 3.73242L17.4834 3.56055H14.8457V6.99707H19.6816V6.07812Z" fill="#101010" stroke="black"/>
</svg>
