<svg width="21" height="22" viewBox="0 0 21 22" fill="none" xmlns="http://www.w3.org/2000/svg">
<path d="M10.3641 22L3.03554 15.5563C1.5861 14.2819 0.59903 12.6581 0.199139 10.8905C-0.200752 9.12277 0.00449902 7.29051 0.788938 5.62539C1.57338 3.96027 2.90177 2.53707 4.60614 1.53576C6.3105 0.534448 8.31429 0 10.3641 0C12.4139 0 14.4177 0.534448 16.1221 1.53576C17.8265 2.53707 19.1549 3.96027 19.9393 5.62539C20.7237 7.29051 20.929 9.12277 20.5291 10.8905C20.1292 12.6581 19.1421 14.2819 17.6927 15.5563L10.3641 22ZM16.0644 14.1246C17.1916 13.1333 17.9593 11.8704 18.2703 10.4956C18.5812 9.12075 18.4215 7.69569 17.8114 6.40064C17.2013 5.10558 16.1681 3.99868 14.8425 3.21991C13.5169 2.44114 11.9584 2.02548 10.3641 2.02548C8.76984 2.02548 7.21137 2.44114 5.88576 3.21991C4.56016 3.99868 3.52696 5.10558 2.91682 6.40064C2.30668 7.69569 2.147 9.12075 2.45797 10.4956C2.76894 11.8704 3.53659 13.1333 4.66385 14.1246L10.3641 19.1366L16.0644 14.1246ZM10.3641 11.1377C9.75329 11.1377 9.16747 10.9243 8.73555 10.5445C8.30363 10.1648 8.06098 9.64969 8.06098 9.11262C8.06098 8.57554 8.30363 8.06047 8.73555 7.6807C9.16747 7.30093 9.75329 7.08757 10.3641 7.08757C10.9749 7.08757 11.5608 7.30093 11.9927 7.6807C12.4246 8.06047 12.6673 8.57554 12.6673 9.11262C12.6673 9.64969 12.4246 10.1648 11.9927 10.5445C11.5608 10.9243 10.9749 11.1377 10.3641 11.1377Z" fill="#101010"/>
</svg>
